<svg width="55" height="56" viewBox="0 0 55 56" fill="none" xmlns="http://www.w3.org/2000/svg">
<rect width="55" height="56" fill="#F6F6F6"/>
<g clip-path="url(#clip0_0_1)">
<rect width="1407" height="1013" transform="translate(-1004 -781)" fill="white"/>
<g opacity="0.06" filter="url(#filter0_f_0_1)">
<rect x="-851.421" y="-19.2686" width="1068.84" height="189.218" rx="10" fill="#0D1025"/>
</g>
<rect x="-887" y="-72.0669" width="1140" height="200" rx="10" fill="white"/>
<rect y="0.433105" width="55" height="55" rx="27.5" fill="#FFECEC"/>
<path d="M35.5 18.9331H19.5C18.9696 18.9331 18.4609 19.1438 18.0858 19.5189C17.7107 19.894 17.5 20.4027 17.5 20.9331V24.9331C17.5 25.4635 17.7107 25.9722 18.0858 26.3473C18.4609 26.7224 18.9696 26.9331 19.5 26.9331H35.5C36.0304 26.9331 36.5391 26.7224 36.9142 26.3473C37.2893 25.9722 37.5 25.4635 37.5 24.9331V20.9331C37.5 20.4027 37.2893 19.894 36.9142 19.5189C36.5391 19.1438 36.0304 18.9331 35.5 18.9331ZM30.5 22.9331C30.5 23.4854 30.0523 23.9331 29.5 23.9331C28.9477 23.9331 28.5 23.4854 28.5 22.9331C28.5 22.3808 28.9477 21.9331 29.5 21.9331C30.0523 21.9331 30.5 22.3808 30.5 22.9331ZM34.5 22.9331C34.5 23.4854 34.0523 23.9331 33.5 23.9331C32.9477 23.9331 32.5 23.4854 32.5 22.9331C32.5 22.3808 32.9477 21.9331 33.5 21.9331C34.0523 21.9331 34.5 22.3808 34.5 22.9331ZM35.5 28.9331H19.5C18.9696 28.9331 18.4609 29.1438 18.0858 29.5189C17.7107 29.894 17.5 30.4027 17.5 30.9331V34.9331C17.5 35.4635 17.7107 35.9722 18.0858 36.3473C18.4609 36.7224 18.9696 36.9331 19.5 36.9331H35.5C36.0304 36.9331 36.5391 36.7224 36.9142 36.3473C37.2893 35.9722 37.5 35.4635 37.5 34.9331V30.9331C37.5 30.4027 37.2893 29.894 36.9142 29.5189C36.5391 29.1438 36.0304 28.9331 35.5 28.9331ZM30.5 32.9331C30.5 33.4854 30.0523 33.9331 29.5 33.9331C28.9477 33.9331 28.5 33.4854 28.5 32.9331C28.5 32.3808 28.9477 31.9331 29.5 31.9331C30.0523 31.9331 30.5 32.3808 30.5 32.9331ZM34.5 32.9331C34.5 33.4854 34.0523 33.9331 33.5 33.9331C32.9477 33.9331 32.5 33.4854 32.5 32.9331C32.5 32.3808 32.9477 31.9331 33.5 31.9331C34.0523 31.9331 34.5 32.3808 34.5 32.9331Z" fill="#F53838"/>
</g>
<defs>
<filter id="filter0_f_0_1" x="-965.421" y="-133.269" width="1296.84" height="417.218" filterUnits="userSpaceOnUse" color-interpolation-filters="sRGB">
<feFlood flood-opacity="0" result="BackgroundImageFix"/>
<feBlend mode="normal" in="SourceGraphic" in2="BackgroundImageFix" result="shape"/>
<feGaussianBlur stdDeviation="57" result="effect1_foregroundBlur_0_1"/>
</filter>
<clipPath id="clip0_0_1">
<rect width="1407" height="1013" fill="white" transform="translate(-1004 -781)"/>
</clipPath>
</defs>
</svg>
